<svg xmlns="http://www.w3.org/2000/svg" viewBox="0 0 36 36">
  <path fill="#FFCC4D" d="M36 18c0 9.941-8.059 18-18 18S0 27.941 0 18 8.059 0 18 0s18 8.059 18 18"/>
  <path fill="#292F33" d="M25 13c0 1.104-.896 2-2 2h-1V7h1c1.104 0 2 .896 2 2v4zm-12 2h-1c-1.104 0-2-.896-2-2V9c0-1.104.896-2 2-2h1v8z"/>
  <path fill="#292F33" d="M31 20c0 1.104-.896 2-2 2H7c-1.104 0-2-.896-2-2v-6c0-6.075 4.925-11 11-11h4c6.075 0 11 4.925 11 11v6zm-16-1h6v-3h-6v3zm-7 0h4v-3H8v3zm16 0h4v-3h-4v3z"/>
  <path fill="#FFCC4D" d="M13 19h10v3H13zm-5 0h3v3H8zm15 0h3v3h-3z"/>
  <path fill="#292F33" d="M5 22.5c0 1.381 1.119 2.5 2.5 2.5S10 23.881 10 22.5c0-1.35-2.5-2.5-2.5-2.5S5 21.15 5 22.5zm21 0c0 1.381 1.119 2.5 2.5 2.5s2.5-1.119 2.5-2.5c0-1.35-2.5-2.5-2.5-2.5s-2.5 1.15-2.5 2.5z"/>
  <path fill="#55ACEE" d="M10 22.5c0 1.381-1.119 2.5-2.5 2.5S5 23.881 5 22.5 6.119 20 7.5 20s2.5 1.119 2.5 2.5zm21 0c0 1.381-1.119 2.5-2.5 2.5S26 23.881 26 22.5s1.119-2.5 2.5-2.5 2.5 1.119 2.5 2.5z"/>
</svg> 